<svg width="376" height="156" viewBox="0 0 376 156" fill="none" xmlns="http://www.w3.org/2000/svg">
<rect width="376" height="156" rx="9" fill="#36DBD1"/>
<path fill-rule="evenodd" clip-rule="evenodd" d="M336.146 156C359.989 142.026 376 116.133 376 86.5C376 42.0411 339.959 6 295.5 6C251.041 6 215 42.0411 215 86.5C215 116.133 231.011 142.026 254.854 156H336.146Z" fill="#FEFEFE" fill-opacity="0.49"/>
<path fill-rule="evenodd" clip-rule="evenodd" d="M5.70166 0C3.7168 1.40503 1.81348 2.91772 0 4.52963V102.47C11.5679 112.754 26.8047 119 43.5 119C79.6748 119 109 89.6746 109 53.5C109 31.4037 98.0586 11.863 81.2983 0H5.70166Z" fill="#FEFEFE" fill-opacity="0.61"/>
</svg>
