<svg width="374" height="163" viewBox="0 0 374 163" fill="none" xmlns="http://www.w3.org/2000/svg">
<rect width="374" height="163" rx="9" fill="#45BF76"/>
<path fill-rule="evenodd" clip-rule="evenodd" d="M329.146 163C352.989 149.026 369 123.133 369 93.5C369 49.0411 332.959 13 288.5 13C244.041 13 208 49.0411 208 93.5C208 123.133 224.011 149.026 247.854 163H329.146Z" fill="#FEFEFE" fill-opacity="0.34"/>
<path fill-rule="evenodd" clip-rule="evenodd" d="M2.15576 163C1.42676 162.513 0.708008 162.012 0 161.496V55.5037C10.8066 47.6393 24.1118 43 38.5 43C74.6748 43 104 72.3254 104 108.5C104 131.229 92.4229 151.254 74.8442 163H2.15576Z" fill="#FEFEFE" fill-opacity="0.2"/>
</svg>
